<svg xmlns="http://www.w3.org/2000/svg" viewBox="0 0 320 320"><path d="M262.8 116.8c-9.8-2.6-32.7-2.5-66.3-3.4 1.6-7.3 2-13.9 2-25.7C198.5 59.7 178.1 35 160 35c-12.8 0-23.3 10.4-23.4 23.3 -0.2 15.7-5 42.9-31.2 56.7 -1.9 1-7.4 3.7-8.2 4.1l0.4 0.4c-4.1-3.5-9.8-6.2-15.6-6.2H58.4c-12.9 0-23.4 10.5-23.4 23.4v125C35 274.5 45.5 285 58.4 285h23.4c9.3 0 17.1-5.6 20.8-13.5 0.1 0 0.3 0.1 0.4 0.1 0.5 0.1 1.1 0.3 1.9 0.5 0.1 0 0.2 0 0.4 0.1 4.5 1.1 13.2 3.2 31.7 7.4 4 0.9 24.9 5.4 46.7 5.4h42.7c13 0 22.4-5 28-15.1 0.1-0.2 1.9-3.7 3.3-8.4 1.1-3.6 1.5-8.6 0.2-13.7 8.4-5.8 11.1-14.5 12.8-20.2 2.9-9.3 2.1-16.3 0-21.3 4.7-4.5 8.7-11.2 10.4-21.6 1.1-6.4-0.1-13-3-18.5 4.4-5 6.4-11.2 6.7-17l0.1-1.6c0.1-1 0.1-1.7 0.1-3.9C285 133.8 278.2 121.2 262.8 116.8zM89.7 261.6c0 4.3-3.5 7.8-7.8 7.8H58.4c-4.3 0-7.8-3.5-7.8-7.8v-125c0-4.3 3.5-7.8 7.8-7.8h23.4c4.3 0 7.8 3.5 7.8 7.8V261.6zM269.2 148.6c-0.2 3.9-1.8 11.4-15.4 11.4 -11.7 0-15.6 0-15.6 0 -2.2 0-3.9 1.8-3.9 3.9 0 2.2 1.7 3.9 3.9 3.9 0 0 3.4 0 15.1 0s13.3 9.7 12.5 14.4c-1 5.8-3.7 16.8-16.9 16.8 -13.2 0-18.6 0-18.6 0 -2.2 0-3.9 1.7-3.9 3.9 0 2.2 1.7 3.9 3.9 3.9 0 0 9.3 0 15.4 0 13.2 0 12 10.1 10.1 16.1 -2.5 7.9-4 15.2-20.6 15.2 -5.6 0-12.7 0-12.7 0 -2.2 0-3.9 1.7-3.9 3.9 0 2.2 1.7 3.9 3.9 3.9 0 0 5.4 0 12.3 0 8.5 0 8.9 8.1 8 11 -1 3.2-2.1 5.5-2.2 5.6 -2.4 4.3-6.2 6.8-14.2 6.8h-42.7c-21.5 0-42.7-4.9-43.3-5 -32.5-7.5-34.2-8.1-36.2-8.6 0 0-6.6-1.1-6.6-6.9L97.5 141c0-3.7 2.3-7 6.2-8.1 0.5-0.2 1.1-0.4 1.6-0.6 35.7-14.8 46.6-47.2 46.9-73.8 0-3.7 2.9-7.8 7.8-7.8 8.3 0 22.9 16.6 22.9 37.1 0 18.5-0.7 21.7-7.2 41 78.1 0 77.6 1.1 84.5 2.9 8.5 2.4 9.3 9.5 9.3 12C269.4 146.3 269.3 145.9 269.2 148.6zM70.2 238.1c-6.5 0-11.7 5.2-11.7 11.7s5.2 11.7 11.7 11.7 11.7-5.2 11.7-11.7S76.6 238.1 70.2 238.1zM70.2 253.8c-2.1 0-3.9-1.8-3.9-3.9s1.8-3.9 3.9-3.9 3.9 1.8 3.9 3.9S72.3 253.8 70.2 253.8z" fill="#E4A699"/></svg>