<?xml version="1.0" encoding="UTF-8" standalone="no"?>
<svg
   xmlns:dc="http://purl.org/dc/elements/1.1/"
   xmlns:cc="http://creativecommons.org/ns#"
   xmlns:rdf="http://www.w3.org/1999/02/22-rdf-syntax-ns#"
   xmlns:svg="http://www.w3.org/2000/svg"
   xmlns="http://www.w3.org/2000/svg"
   xml:space="preserve"
   enable-background="new 213.236 -54.289 1739.155 458.273"
   viewBox="213.236 -54.289 1739.155 458.273"
   y="0px"
   x="0px"
   id="artwork"
   version="1.1"><metadata
     id="metadata13"><rdf:RDF><cc:Work
         rdf:about=""><dc:format>image/svg+xml</dc:format><dc:type
           rdf:resource="http://purl.org/dc/dcmitype/StillImage" /><dc:title></dc:title></cc:Work></rdf:RDF></metadata><defs
     id="defs11" /><path
     id="path3"
     d="M395.759,236.803V36.973h-91.261v275.75h165.454l4.106-9.725l27.951-66.195H395.759z M613.526,36.973  l-116.437,275.75h93.622l14.16-38.943h103.451l13.768,38.943h60.026v-91.338L707.142,36.973H613.526z M628.472,208.483  l29.108-80.643l28.322,80.643H628.472z M898.377,243.491v-34.223h102.551c-2.251-11.525-3.41-23.448-3.41-35.639  c0-11.48,1.08-22.713,3.174-33.594H898.377v-33.83h112.592c7.135-16.781,17.015-32.212,29.413-45.76V36.973H807.115v275.75h236.807  v-19.556c-13.846-14.457-24.799-31.25-32.58-49.677H898.377z M1242.949,205.758c-18.708,19.928-44.331,32.535-64.665,32.535  c-34.163,0-58.972-27.654-58.972-65.885c0-37.824,24.809-65.072,58.972-65.072c21.962,0,47.584,15.047,64.665,38.23l54.498-64.666  c-29.281-31.723-76.865-52.057-120.384-52.057c-89.474,0-154.546,61.004-154.546,144.785c0,85,63.445,147.225,150.886,147.225  c28.385,0,58.632-9.352,85.047-25.29c-1.471-5.783-2.247-11.862-2.247-18.133c0-15.963,5.021-30.736,14.243-42.329L1242.949,205.758  z"
     fill="#00B6CD" /><path
     id="path5"
     d="M1351.45,216.814c7.149,3.147,13.626,7.501,19.135,12.972c12.271,12.188,19.03,29.108,19.03,47.646  c0,12.898-3.215,25.005-9.229,35.292h62.326v-89.688h122.338v-69.232h-122.338v-47.598h130.598V36.973H1351.45V216.814z   M1806.97,223.036c28.322-17.307,43.664-47.203,43.664-87.328c0-62.938-42.877-98.734-117.616-98.734h-133.353v275.75h91.262  v-71.594h34.223l33.043,71.594h103.063L1806.97,223.036z M1733.018,171.899h-42.091v-65.693h42.091  c19.668,0,31.075,11.801,31.075,32.256C1764.093,159.704,1752.686,171.899,1733.018,171.899z"
     fill="#C94E34" /><path
     id="path7"
     d="M495.476,109.272h60.595l30.127-71.969h-68.13L495.476,109.272z M1322.706,235.927  c-24.414,0-41.503,17.09-41.503,41.504c0,24.82,17.089,41.908,41.503,41.908c24.819,0,41.909-17.088,41.909-41.908  C1364.615,253.017,1347.526,235.927,1322.706,235.927z"
     fill="#7FDAE6" /></svg>