<?xml version="1.0" encoding="UTF-8" standalone="no"?>
<svg
   xmlns:dc="http://purl.org/dc/elements/1.1/"
   xmlns:cc="http://creativecommons.org/ns#"
   xmlns:rdf="http://www.w3.org/1999/02/22-rdf-syntax-ns#"
   xmlns:svg="http://www.w3.org/2000/svg"
   xmlns="http://www.w3.org/2000/svg"
   version="1.1"
   x="0px"
   y="0px"
   viewBox="-147.198 28.843 2008.454 407.511"
   enable-background="new -147.198 28.843 2008.454 407.511"
   xml:space="preserve"
   id="svg2"><metadata
     id="metadata64"><rdf:RDF><cc:Work
         rdf:about=""><dc:format>image/svg+xml</dc:format><dc:type
           rdf:resource="http://purl.org/dc/dcmitype/StillImage" /><dc:title></dc:title></cc:Work></rdf:RDF></metadata><defs
     id="defs62" /><path
     style="fill:#ffffff"
     id="path5"
     d="m 324.527,358.364 0,59.95 32.67,0 0,17.16 -52.8,0 0,-77.11 20.13,0 z" /><path
     style="fill:#ffffff"
     id="path7"
     d="m 457.424,421.834 -33.33,0 -5.39,13.64 -20.68,0 33.11,-77.11 20.68,0 32.34,77.11 -21.45,0 -5.28,-13.64 z m -5.94,-15.4 -10.56,-27.5 -10.78,27.5 21.34,0 z" /><path
     style="fill:#ffffff;fill-opacity:0.49803922"
     id="path9"
     d="m 515.504,358.364 19.25,55.771 19.36,-55.771 20.68,0 -30.14,77.11 -20.9,0 -29.92,-77.11 21.67,0 z" /><path
     style="fill:#ffffff;fill-opacity:0.49803922"
     id="path11"
     d="m 659.384,358.364 0,16.06 -40.7,0 0,14.41 36.74,0 0,15.95 -36.74,0.11 0,14.52 41.8,0 0,16.061 -61.93,0 0,-77.11 60.83,0 z" /><path
     style="fill:#ffffff;fill-opacity:0.49803922"
     id="path13"
     d="m 707.012,358.364 34.98,46.42 0,-46.42 18.7,0 0,77.11 -17.6,0 -34.979,-46.2 0,46.2 -18.81,0 0,-77.11 17.709,0 z" /><path
     style="fill:#ffffff;fill-opacity:0.49803922"
     id="path15"
     d="m 812.391,358.364 0,77.11 -20.13,0 0,-77.11 20.13,0 z" /><path
     style="fill:#ffffff;fill-opacity:0.49803922"
     id="path17"
     d="m 890.159,435.474 -11.22,-21.34 -0.44,0 -14.52,0 0,21.34 -20.13,0 0,-77.11 34.649,0 c 20.461,0 32.12,9.9 32.12,27.061 0,11.659 -4.84,20.239 -13.75,24.859 l 16.061,25.19 -22.77,0 z m -26.179,-37.4 14.63,0 c 8.14,0 12.87,-4.18 12.87,-11.99 0,-7.59 -4.73,-11.66 -12.87,-11.66 l -14.63,0 0,23.65 z" /><path
     style="fill:#ffffff"
     id="path19"
     d="m 1064.461,358.364 0,16.06 -40.7,0 0,14.41 36.74,0 0,15.95 -36.74,0.11 0,14.52 41.8,0 0,16.061 -61.93,0 0,-77.11 60.83,0 z" /><path
     style="fill:#ffffff;fill-opacity:0.49803922"
     id="path21"
     d="m 1112.09,358.364 34.979,46.42 0,-46.42 18.7,0 0,77.11 -17.6,0 -34.98,-46.2 0,46.2 -18.81,0 0,-77.11 17.711,0 z" /><path
     style="fill:#ffffff"
     id="path23"
     d="m 1297.612,374.864 c -11.88,0 -20.9,9.35 -20.9,21.67 0,12.431 9.021,21.891 20.9,21.891 6.38,0 13.75,-3.521 19.14,-9.021 l 11.771,12.65 c -8.25,8.689 -20.57,14.3 -32.011,14.3 -23.21,0 -40.479,-16.94 -40.479,-39.6 0,-22.221 17.71,-38.94 41.25,-38.94 11.44,0 23.43,5.06 31.13,13.2 l -11.66,13.97 c -5.061,-6.16 -12.431,-10.12 -19.141,-10.12 z" /><path
     style="fill:#ffffff;fill-opacity:0.49803922"
     id="path25"
     d="m 1430.71,396.864 c 0,22.55 -17.819,39.49 -41.689,39.49 -23.87,0 -41.69,-16.94 -41.69,-39.49 0,-22.44 17.82,-39.05 41.69,-39.05 23.87,0 41.689,16.72 41.689,39.05 z m -62.7,0.11 c 0,12.54 9.79,22.22 21.23,22.22 11.55,0 20.79,-9.68 20.79,-22.22 0,-12.54 -9.24,-22 -20.79,-22 -11.55,0 -21.23,9.46 -21.23,22 z" /><path
     style="fill:#ffffff;fill-opacity:0.49803922"
     id="path27"
     d="m 1479.219,358.364 20.46,44.99 20.46,-44.99 22,0 0,77.11 -17.82,0 -0.109,-48.84 -17.931,41.14 -13.2,0 -17.93,-41.14 0,48.84 -17.93,0 0,-77.11 22,0 z" /><path
     style="fill:#ffffff;fill-opacity:0.49803922"
     id="path29"
     d="m 1595.598,358.364 20.46,44.99 20.46,-44.99 22,0 0,77.11 -17.82,0 -0.109,-48.84 -17.931,41.14 -13.2,0 -17.93,-41.14 0,48.84 -17.93,0 0,-77.11 22,0 z" /><path
     style="fill:#ffffff;fill-opacity:0.49803922"
     id="path31"
     d="m 1724.517,419.194 c 8.91,0 15.069,-6.05 15.069,-16.06 l 0,-44.771 20.131,0 0,44.771 c 0,20.35 -13.641,33.22 -35.311,33.22 -21.78,0 -35.75,-12.87 -35.75,-33.22 l 0,-44.771 20.13,0 0,44.771 c 0,9.9 6.601,16.06 15.731,16.06 z" /><path
     style="fill:#ffffff;fill-opacity:0.49803922"
     id="path33"
     d="m 1807.567,358.364 34.979,46.42 0,-46.42 18.7,0 0,77.11 -17.6,0 -34.98,-46.2 0,46.2 -18.81,0 0,-77.11 17.711,0 z" /><path
     style="fill:#ffffff"
     id="path35"
     d="m 395.759,236.803 0,-199.83 -91.261,0 0,275.75 165.454,0 4.106,-9.725 27.951,-66.195 -106.25,0 z" /><path
     style="fill:#ffffff"
     id="path37"
     d="m 613.526,36.973 -116.437,275.75 93.622,0 14.16,-38.943 103.451,0 13.768,38.943 60.026,0 0,-91.338 -74.974,-184.412 -93.616,0 z m 14.946,171.51 29.108,-80.643 28.322,80.643 -57.43,0 z" /><path
     style="fill:#ffffff"
     id="path39"
     d="m 898.377,243.491 0,-34.223 102.551,0 c -2.251,-11.525 -3.41,-23.448 -3.41,-35.639 0,-11.48 1.08,-22.713 3.174,-33.594 l -102.315,0 0,-33.83 112.592,0 c 7.135,-16.781 17.015,-32.212 29.413,-45.76 l 0,-23.472 -233.267,0 0,275.75 236.807,0 0,-19.556 c -13.846,-14.457 -24.799,-31.25 -32.58,-49.677 l -112.965,0 z" /><path
     style="fill:#ffffff"
     id="path41"
     d="m 1242.949,205.758 c -18.708,19.928 -44.331,32.535 -64.665,32.535 -34.163,0 -58.972,-27.654 -58.972,-65.885 0,-37.824 24.809,-65.072 58.972,-65.072 21.962,0 47.584,15.047 64.665,38.23 L 1297.447,80.9 c -29.281,-31.723 -76.865,-52.057 -120.384,-52.057 -89.474,0 -154.546,61.004 -154.546,144.785 0,85 63.445,147.225 150.886,147.225 28.385,0 58.632,-9.352 85.047,-25.29 -1.471,-5.783 -2.247,-11.862 -2.247,-18.133 0,-15.963 5.021,-30.736 14.243,-42.329 l -27.497,-29.343 z" /><polygon
     style="fill:#ffffff;fill-opacity:0.49803922"
     id="polygon43"
     points="556.072,109.272 495.476,109.272 518.068,37.303 586.198,37.303 " /><path
     style="fill:#ffffff"
     id="path45"
     d="m 1573.31,106.206 0,-69.233 -221.86,0 0,179.841 c 7.149,3.147 13.626,7.501 19.135,12.972 12.271,12.188 19.03,29.108 19.03,47.646 0,12.898 -3.215,25.005 -9.229,35.292 l 62.326,0 0,-89.688 122.338,0 0,-69.232 -122.338,0 0,-47.598 130.598,0 z" /><path
     style="fill:#ffffff"
     id="path47"
     d="m 1733.018,36.973 -133.353,0 0,275.75 91.262,0 0,-71.594 34.223,0 33.043,71.594 103.063,0 -54.285,-89.688 c 28.322,-17.307 43.664,-47.203 43.664,-87.328 -10e-4,-62.937 -42.878,-98.734 -117.617,-98.734 z m 0,134.926 -42.091,0 0,-65.693 42.091,0 c 19.668,0 31.075,11.801 31.075,32.256 0,21.242 -11.407,33.437 -31.075,33.437 z" /><path
     style="fill:#ffffff;fill-opacity:0.49803922"
     id="path49"
     d="m 1322.706,235.927 c -24.414,0 -41.503,17.09 -41.503,41.504 0,24.82 17.089,41.908 41.503,41.908 24.819,0 41.909,-17.088 41.909,-41.908 0,-24.414 -17.089,-41.504 -41.909,-41.504 z" /><polygon
     style="fill:#ffffff;fill-opacity:0.49803922"
     id="polygon51"
     points="374.236,378.591 357.197,378.591 363.55,358.354 382.707,358.354 " /><path
     d="m 200.806,86.69 0,335.58 -298.29,0 c 0,0 -37.286,0 -37.286,-37.287 0,-37.286 37.286,-37.286 37.286,-37.286 l 96.535,0 C -3.935,334.013 -5.989,318.336 -7,301.604 -30.067,295.281 -51.519,282.246 -68.118,262.773 -89.421,237.796 -99.647,206.076 -96.93,173.448 -94.212,140.823 -78.871,111.204 -53.738,90.042 -36.829,75.82 -16.421,66.377 5.31,62.72 c 1.539,-0.325 4.661,-0.873 8.275,-0.89 13.264,-0.066 19.371,6.947 21.832,11.134 9.424,16.021 -4.564,34.533 -21.097,52.142 -6.392,6.82 -17.135,7.193 -23.989,0.84 -6.663,-6.173 -7.205,-16.422 -1.366,-23.247 -7.449,3.373 -14.437,7.768 -20.752,13.082 -18.222,15.337 -29.342,36.806 -31.307,60.445 -1.97,23.648 5.444,46.64 20.877,64.745 9.68,11.353 21.627,19.687 34.641,24.891 0.005,-0.182 0.01,-0.372 0.015,-0.562 0.833,-29.854 5.19,-73.767 21.218,-113.431 9.747,-24.107 22.86,-41.176 38.983,-50.725 15.892,-9.406 33.8,-11.069 51.786,-4.793 30.05,10.487 40.561,45.796 42.028,51.29 6.537,22.09 6.162,46.089 -1.09,69.44 -7.328,23.582 -21.042,44.332 -39.651,59.995 -10.963,9.216 -23.106,16.219 -35.84,21.019 -13.717,5.175 -28.117,7.81 -42.521,7.951 1.248,15.637 3.501,29.95 6.603,41.651 l 141.997,0 0,-310.724 c 0,0 -223.719,0 -273.435,0 -49.716,0 -49.715,51.269 -49.715,51.269 0,0 0,247.021 0,297.516 0,50.491 49.715,48.941 49.715,48.941 l 310.719,0 0,-348.009 -12.43,0 z m -86.984,70.278 -0.17,-0.614 c -1.59,-5.965 -8.822,-24.113 -20.476,-28.175 -13.342,-4.654 -32.496,-2.139 -48.021,36.27 -11.045,27.323 -17.713,63.471 -18.78,101.784 -0.054,2.044 -0.096,4.078 -0.126,6.108 20.365,-0.05 40.813,-6.944 57.526,-21.012 27.402,-23.069 39.76,-61.867 30.047,-94.361 z"
     id="path56"
     style="fill:#ffffff" /><path
     d="m -98.441,397.41 274.393,0 0,-24.856 -274.393,0 c -6.325,0 -11.472,5.575 -11.472,12.427 0,6.854 5.147,12.429 11.472,12.429 z"
     id="path58"
     style="fill:#ffffff;fill-opacity:0.49803922" /></svg>