<svg xmlns="http://www.w3.org/2000/svg" viewBox="0 0 320 320"><path d="M263.7 66.9v207.3H79.4c0 0-23 0-23-23s23-23 23-23h59.6c-1.8-8.5-3.1-18.1-3.7-28.5 -14.3-3.9-27.5-12-37.8-24 -13.2-15.4-19.5-35-17.8-55.2 1.7-20.2 11.2-38.5 26.7-51.5 10.4-8.8 23.1-14.6 36.5-16.9 1-0.2 2.9-0.5 5.1-0.5 8.2 0 12 4.3 13.5 6.9 5.8 9.9-2.8 21.3-13 32.2 -3.9 4.2-10.6 4.4-14.8 0.5 -4.1-3.8-4.5-10.1-0.8-14.4 -4.6 2.1-8.9 4.8-12.8 8.1 -11.3 9.5-18.1 22.7-19.3 37.3 -1.2 14.6 3.4 28.8 12.9 40 6 7 13.4 12.2 21.4 15.4 0-0.1 0-0.2 0-0.3 0.5-18.4 3.2-45.6 13.1-70.1 6-14.9 14.1-25.4 24.1-31.3 9.8-5.8 20.9-6.8 32-3 18.6 6.5 25.1 28.3 26 31.7 4 13.6 3.8 28.5-0.7 42.9 -4.5 14.6-13 27.4-24.5 37.1 -6.8 5.7-14.3 10-22.1 13 -8.5 3.2-17.4 4.8-26.3 4.9 0.8 9.7 2.2 18.5 4.1 25.7H248.3V36.2c0 0-138.2 0-168.9 0S48.7 67.8 48.7 67.8s0 152.6 0 183.8 30.7 30.2 30.7 30.2h192V66.9H263.7zM209.9 110.3l-0.1-0.4c-1-3.7-5.5-14.9-12.7-17.4 -8.2-2.9-20.1-1.3-29.7 22.4 -6.8 16.9-10.9 39.2-11.6 62.9 0 1.3-0.1 2.5-0.1 3.8 12.6 0 25.2-4.3 35.5-13C208.3 154.3 215.9 130.4 209.9 110.3z" fill="#00B6CD"/><path d="M78.8 258.8H248.3v-15.4H78.8c-3.9 0-7.1 3.4-7.1 7.7S74.9 258.8 78.8 258.8z" fill="#7FDAE6"/></svg>